<?xml version="1.0" encoding="UTF-8"?>
<svg version="1.1" xmlns="http://www.w3.org/2000/svg" width="512" height="512">
<path d="M0 0 C1.01790619 0.00215515 2.03581238 0.0043103 3.08456421 0.00653076 C17.69363523 0.05620146 32.02575853 0.30709809 46.375 3.3125 C47.34985352 3.51117676 48.32470703 3.70985352 49.32910156 3.91455078 C97.7109774 14.03517194 141.69928269 35.9516877 177.375 70.3125 C178.3640332 71.26068604 178.3640332 71.26068604 179.37304688 72.22802734 C188.86130305 81.37247479 197.6012044 90.66984009 205.375 101.3125 C206.23306152 102.46355017 207.09113451 103.61459177 207.94921875 104.765625 C213.98736829 112.95680614 219.34595521 121.47054105 224.375 130.3125 C224.73948242 130.94430176 225.10396484 131.57610352 225.47949219 132.22705078 C247.08534998 169.97532572 256.85198095 212.74189997 256.6875 255.9375 C256.68534485 256.95540619 256.6831897 257.97331238 256.68096924 259.02206421 C256.63129854 273.63113523 256.38040191 287.96325853 253.375 302.3125 C253.07698486 303.77478027 253.07698486 303.77478027 252.77294922 305.26660156 C242.65232806 353.6484774 220.7358123 397.63678269 186.375 433.3125 C185.74287598 433.97185547 185.11075195 434.63121094 184.45947266 435.31054688 C175.31502521 444.79880305 166.01765991 453.5387044 155.375 461.3125 C154.22394983 462.17056152 153.07290823 463.02863451 151.921875 463.88671875 C143.73224019 469.92427396 135.22961724 475.30707302 126.375 480.3125 C125.66778809 480.7146875 124.96057617 481.116875 124.23193359 481.53125 C101.09654164 494.5566741 75.92537591 503.30551461 49.9375 508.625 C49.21860596 508.77235596 48.49971191 508.91971191 47.7590332 509.0715332 C33.08339502 511.86090125 18.55831162 512.66142619 3.64770508 512.62817383 C0.70811513 512.6250221 -2.2304558 512.64854926 -5.16992188 512.67382812 C-18.54306192 512.71848737 -31.43916711 511.51301542 -44.625 509.3125 C-46.33055054 509.03031616 -46.33055054 509.03031616 -48.07055664 508.74243164 C-91.33802759 500.97044532 -132.38793216 480.98345309 -165.625 452.3125 C-166.37007813 451.67828125 -167.11515625 451.0440625 -167.8828125 450.390625 C-181.38779833 438.57948485 -194.05918743 425.82889772 -204.625 411.3125 C-205.48149066 410.16255169 -206.33826433 409.01281411 -207.1953125 407.86328125 C-213.23534209 399.67315742 -218.61867614 391.16870382 -223.625 382.3125 C-224.0271875 381.60528809 -224.429375 380.89807617 -224.84375 380.16943359 C-237.8691741 357.03404164 -246.61801461 331.86287591 -251.9375 305.875 C-252.08485596 305.15610596 -252.23221191 304.43721191 -252.3840332 303.6965332 C-255.35789088 288.05024391 -255.99800362 272.57681954 -255.9375 256.6875 C-255.93534485 255.66959381 -255.9331897 254.65168762 -255.93096924 253.60293579 C-255.88129854 238.99386477 -255.63040191 224.66174147 -252.625 210.3125 C-252.42632324 209.33764648 -252.22764648 208.36279297 -252.02294922 207.35839844 C-241.90232806 158.9765226 -219.9858123 114.98821731 -185.625 79.3125 C-184.99287598 78.65314453 -184.36075195 77.99378906 -183.70947266 77.31445312 C-174.56502521 67.82619695 -165.26765991 59.0862956 -154.625 51.3125 C-153.47394983 50.45443848 -152.32290823 49.59636549 -151.171875 48.73828125 C-142.98224019 42.70072604 -134.47961724 37.31792698 -125.625 32.3125 C-124.91778809 31.9103125 -124.21057617 31.508125 -123.48193359 31.09375 C-100.34654164 18.0683259 -75.17537591 9.31948539 -49.1875 4 C-48.46860596 3.85264404 -47.74971191 3.70528809 -47.0090332 3.5534668 C-31.36274391 0.57960912 -15.88931954 -0.06050362 0 0 Z " fill="#0053BF" transform="translate(255.625,-0.3125)"/>
<path d="M0 0 C2.37378377 2.13340061 4.73822165 4.27581469 7.08984375 6.43359375 C11.09501771 4.82986227 13.76695355 2.01245389 16.73046875 -1.01171875 C17.25751404 -1.54159393 17.78455933 -2.07146912 18.32757568 -2.61740112 C20.0031005 -4.3040845 21.67152097 -5.99760189 23.33984375 -7.69140625 C24.47740226 -8.83900013 25.61541811 -9.98614086 26.75390625 -11.1328125 C29.5378784 -13.93878762 32.31550135 -16.75091089 35.08984375 -19.56640625 C39.60964756 -15.76304275 43.9764968 -11.8558397 48.20874023 -7.7355957 C48.77546951 -7.18668167 49.34219879 -6.63776764 49.92610168 -6.07221985 C55.09257172 -1.05896473 60.22706441 3.98709627 65.35154629 9.04323101 C68.78386335 12.42922439 72.22610864 15.8035888 75.6940918 19.15307617 C79.06584093 22.41009543 82.40968772 25.69348674 85.73585701 28.99701881 C87.0018528 30.2452836 88.27731926 31.48402185 89.56243706 32.71259117 C99.5416921 42.27255536 99.5416921 42.27255536 100.87516785 47.52966309 C100.905386 50.31551692 100.64187668 52.70931376 100.08984375 55.43359375 C99.87531161 57.24812567 99.6651476 59.0631837 99.4609375 60.87890625 C99.16372541 62.77438133 98.85193961 64.6676156 98.52734375 66.55859375 C98.35170898 67.58702393 98.17607422 68.6154541 97.99511719 69.67504883 C90.01629862 113.93737723 70.27022057 155.28523162 41.08984375 189.43359375 C40.45304687 190.18253906 39.81625 190.93148437 39.16015625 191.703125 C27.34281907 205.19879996 14.60432787 217.869174 0.08984375 228.43359375 C-1.06010456 229.29008441 -2.20984214 230.14685808 -3.359375 231.00390625 C-11.54949883 237.04393584 -20.05395243 242.42726989 -28.91015625 247.43359375 C-29.61736816 247.83578125 -30.32458008 248.23796875 -31.05322266 248.65234375 C-43.85740514 255.86120831 -57.11535588 261.40571774 -70.91015625 266.43359375 C-72.01746094 266.84609375 -73.12476563 267.25859375 -74.265625 267.68359375 C-77.07201038 268.47949625 -79.00954351 268.72332042 -81.91015625 268.43359375 C-83.91534138 267.04364777 -83.91534138 267.04364777 -85.89021301 265.05480957 C-86.64594604 264.30594986 -87.40167908 263.55709015 -88.18031311 262.78553772 C-88.99455246 261.95332199 -89.80879181 261.12110626 -90.64770508 260.26367188 C-91.51650299 259.3956041 -92.3853009 258.52753632 -93.28042603 257.63316345 C-95.65913626 255.25156597 -98.02620871 252.85941402 -100.38881516 250.46190453 C-102.86090823 247.95856117 -105.34716216 245.46936433 -107.83195496 242.9786377 C-112.53449381 238.26055651 -117.22414191 233.5298746 -121.90930241 228.79454279 C-127.24405418 223.40390975 -132.59300567 218.02746261 -137.94320261 212.65216541 C-148.948074 201.59502705 -159.93495926 190.52019193 -170.91015625 179.43359375 C-170.58015625 178.77359375 -170.25015625 178.11359375 -169.91015625 177.43359375 C-168.69328125 177.92859375 -167.47640625 178.42359375 -166.22265625 178.93359375 C-157.49724132 181.80090778 -148.47537159 181.5717085 -140.125 177.6875 C-132.74664294 173.51033489 -127.98204303 167.71608915 -125.3046875 159.59765625 C-123.55800373 150.01683635 -124.25800861 141.46668369 -129.14453125 132.9609375 C-131.67198692 129.34309719 -134.17358881 126.77476256 -137.91015625 124.43359375 C-138.53148437 124.02367187 -139.1528125 123.61375 -139.79296875 123.19140625 C-146.77257863 119.34333236 -155.1706067 119.18304851 -162.91015625 120.43359375 C-172.27788798 123.402315 -178.15101613 128.3751702 -182.78515625 136.87109375 C-183.15640625 137.71671875 -183.52765625 138.56234375 -183.91015625 139.43359375 C-188.01124511 137.81203351 -190.74163792 134.85682345 -193.76953125 131.76953125 C-194.31877258 131.21746002 -194.86801392 130.66538879 -195.43389893 130.09658813 C-197.18074918 128.3385756 -198.92050226 126.57372485 -200.66015625 124.80859375 C-201.84589216 123.61282295 -203.03208505 122.4175051 -204.21875 121.22265625 C-207.1212071 118.29819122 -210.01732035 115.36757501 -212.91015625 112.43359375 C-209.27161829 107.0909825 -205.83949148 103.07791093 -200.28515625 99.74609375 C-199.37382935 99.18220947 -199.37382935 99.18220947 -198.4440918 98.60693359 C-185.60525404 90.86181062 -172.26510776 86.85653245 -157.28515625 86.99609375 C-156.14941162 87.00294189 -155.01366699 87.00979004 -153.84350586 87.0168457 C-140.2320679 87.27439329 -127.97558641 89.9163614 -115.91015625 96.43359375 C-114.63591797 97.11228516 -114.63591797 97.11228516 -113.3359375 97.8046875 C-107.16383658 101.29244437 -102.0357014 105.55565948 -96.91015625 110.43359375 C-92.90498229 108.82986227 -90.23304645 106.01245389 -87.26953125 102.98828125 C-86.74248596 102.45840607 -86.21544067 101.92853088 -85.67242432 101.38259888 C-83.9968995 99.6959155 -82.32847903 98.00239811 -80.66015625 96.30859375 C-79.52259774 95.16099987 -78.38458189 94.01385914 -77.24609375 92.8671875 C-74.4621216 90.06121238 -71.68449865 87.24908911 -68.91015625 84.43359375 C-72.66771135 79.72734062 -76.44726917 75.90497415 -81.41015625 72.49609375 C-82.01617676 72.07424805 -82.62219727 71.65240234 -83.24658203 71.21777344 C-111.49397433 51.85105188 -144.46725709 44.19997075 -178.32421875 50.46875 C-202.2474122 55.31237191 -223.23020583 66.68909044 -240.91015625 83.43359375 C-246.53319382 78.75893038 -251.70757179 73.75593708 -256.84765625 68.55859375 C-257.62689453 67.77484375 -258.40613281 66.99109375 -259.20898438 66.18359375 C-261.1116971 64.26920794 -263.01201796 62.35251341 -264.91015625 60.43359375 C-255.54785487 41.08500397 -225.61056319 28.02654324 -206.57958984 21.26342773 C-192.54976705 16.57356105 -178.73243661 13.92126599 -163.91015625 13.43359375 C-163.23678223 13.4063623 -162.5634082 13.37913086 -161.86962891 13.35107422 C-122.70656227 11.90059027 -82.22664645 24.43181513 -53.0234375 51.06640625 C-51.34259804 52.63191804 -49.67611991 54.21314351 -48.03125 55.81640625 C-45.82454809 57.83779904 -45.82454809 57.83779904 -41.91015625 57.43359375 C-39.79817196 55.67048076 -37.94852985 53.93704947 -36.05078125 51.96484375 C-35.50153992 51.40994263 -34.95229858 50.8550415 -34.38641357 50.2833252 C-32.63472128 48.50924646 -30.89744565 46.72176811 -29.16015625 44.93359375 C-27.97488207 43.7282576 -26.78869459 42.52381883 -25.6015625 41.3203125 C-22.69372783 38.36838043 -19.79874704 35.40435452 -16.91015625 32.43359375 C-20.93725825 27.42929304 -25.21319012 23.19677776 -30.22265625 19.18359375 C-30.91705811 18.62567139 -31.61145996 18.06774902 -32.3269043 17.49291992 C-67.29347112 -10.12506036 -109.99432523 -25.08873205 -154.53515625 -24.87890625 C-155.32085999 -24.87741577 -156.10656372 -24.87592529 -156.91607666 -24.87438965 C-174.63009099 -24.81414249 -190.95182948 -22.90437836 -207.91015625 -17.56640625 C-208.97492188 -17.293125 -210.0396875 -17.01984375 -211.13671875 -16.73828125 C-238.92338961 -9.58012248 -264.98904547 5.75787806 -285.69921875 25.49609375 C-287.91015625 27.43359375 -287.91015625 27.43359375 -293.91015625 31.43359375 C-301.17015625 24.17359375 -308.43015625 16.91359375 -315.91015625 9.43359375 C-310.38410358 -1.61851158 -299.83006834 -9.5835497 -289.91015625 -16.56640625 C-289.33281738 -16.97600586 -288.75547852 -17.38560547 -288.16064453 -17.80761719 C-262.27107041 -36.02488962 -233.81934198 -48.29009049 -202.95703125 -55.11132812 C-201.53342021 -55.42783707 -200.11164658 -55.75267831 -198.69140625 -56.08398438 C-128.56588801 -72.26216997 -52.74802902 -46.51738935 0 0 Z " fill="#0741A8" transform="translate(410.91015625,232.56640625)"/>
<path d="M0 0 C0.94316071 0.00182281 1.88632141 0.00364563 2.85806274 0.00552368 C16.69515898 0.05048403 30.08721096 0.59191134 43.6875 3.3125 C45.63011689 3.66846817 47.57282999 4.02391154 49.515625 4.37890625 C77.18351855 9.62327817 102.85876053 19.1041687 127.6875 32.3125 C128.27547363 32.62509766 128.86344727 32.93769531 129.46923828 33.25976562 C151.42991032 45.07486403 171.19007916 60.60577987 188.6875 78.3125 C187.08376852 82.31767396 184.26636014 84.9896098 181.2421875 87.953125 C180.71231232 88.48017029 180.18243713 89.00721558 179.63650513 89.55023193 C177.94982175 91.22575675 176.25630436 92.89417722 174.5625 94.5625 C173.41490612 95.70005851 172.26776539 96.83807436 171.12109375 97.9765625 C168.31511863 100.76053465 165.50299536 103.5381576 162.6875 106.3125 C159.36586722 104.73118271 157.06102601 102.97043644 154.375 100.4375 C117.71077817 66.98943798 71.98369834 46.71339901 22.6875 41.3125 C21.85557129 41.21751221 21.02364258 41.12252441 20.16650391 41.0246582 C-37.50549195 35.04043063 -96.63330313 51.63224215 -142.14453125 87.76708984 C-149.42430688 93.68493406 -156.38994344 99.9837519 -163.3125 106.3125 C-169.67840304 101.06791414 -175.44820612 95.29152678 -181.25 89.4375 C-182.22958237 88.45289081 -183.20939837 87.468514 -184.18945312 86.484375 C-186.56610252 84.09601797 -188.94037356 81.70534788 -191.3125 79.3125 C-157.96927763 39.39746592 -103.26871464 14.42094876 -53.1875 4.5625 C-51.68896484 4.26448486 -51.68896484 4.26448486 -50.16015625 3.96044922 C-33.50189498 0.84103476 -16.91728605 -0.06829559 0 0 Z " fill="#E7EBF4" transform="translate(257.3125,133.6875)"/>
<path d="M0 0 C0.78158478 0.00054382 1.56316956 0.00108765 2.36843872 0.00164795 C48.98133504 0.14974387 93.37303557 16.92766778 128.625 47.375 C130.05779297 48.58929688 130.05779297 48.58929688 131.51953125 49.828125 C136.81627224 54.4211032 136.81627224 54.4211032 138.625 56.375 C138.625 59.375 138.625 59.375 136.23828125 62.10229492 C135.14568881 63.19441176 134.0448246 64.27829204 132.9375 65.35546875 C132.07185425 66.21474724 132.07185425 66.21474724 131.1887207 67.09138489 C129.34105624 68.92223565 127.48324193 70.74239185 125.625 72.5625 C124.37171407 73.80074262 123.11910099 75.03966668 121.8671875 76.27929688 C118.79421472 79.31916468 115.71209758 82.34948016 112.625 85.375 C108.99819419 83.67121805 106.58765749 81.59926787 103.6875 78.8125 C75.34798416 52.4175242 34.55194672 39.01879302 -3.85546875 40.15625 C-5.36227556 40.222761 -6.86879925 40.29594438 -8.375 40.375 C-9.20209473 40.41753906 -10.02918945 40.46007812 -10.88134766 40.50390625 C-47.62730138 42.65126298 -82.32341897 58.32341897 -108.375 84.375 C-112.77408777 84.30721839 -115.37585169 80.7512315 -118.234375 77.80859375 C-118.78361633 77.25510757 -119.33285767 76.7016214 -119.89874268 76.13136292 C-121.64800464 74.36533441 -123.38653644 72.58915308 -125.125 70.8125 C-126.310505 69.61194559 -127.49669524 68.4120674 -128.68359375 67.21289062 C-131.58873293 64.27470905 -134.48429337 61.32737926 -137.375 58.375 C-126.59100212 35.51173617 -87.15072667 19.2233398 -64.765625 10.90625 C-58.40801581 8.63288931 -51.94269862 6.93838988 -45.375 5.375 C-44.28832031 5.09914062 -43.20164062 4.82328125 -42.08203125 4.5390625 C-28.09030296 1.0965179 -14.34942298 -0.03791837 0 0 Z " fill="#E7EBF4" transform="translate(255.375,206.625)"/>
<path d="M0 0 C0 12.54 0 25.08 0 38 C-19.04080401 40.11564489 -19.04080401 40.11564489 -25.37011719 40.68237305 C-78.12964995 45.59820575 -123.52042822 70.82115898 -162 106 C-168.36590304 100.75541414 -174.13570612 94.97902678 -179.9375 89.125 C-180.91708237 88.14039081 -181.89689837 87.156014 -182.87695312 86.171875 C-185.25360252 83.78351797 -187.62787356 81.39284788 -190 79 C-151.3750712 32.76225691 -85.46687925 6.38850617 -26.88110352 0.46044922 C-17.92801686 -0.30380291 -8.97748046 -0.12734015 0 0 Z " fill="#FDFDFE" transform="translate(256,134)"/>
<path d="M0 0 C2.3046875 2.140625 2.3046875 2.140625 6.3046875 7.140625 C-7.0603125 20.505625 -7.0603125 20.505625 -20.6953125 34.140625 C-24.02666355 32.47494947 -25.72126778 31.34589278 -28.3203125 28.890625 C-46.27374102 12.95406414 -69.50182793 9.79524736 -92.62109375 10.88623047 C-108.55180054 12.20451164 -122.57943944 20.08967487 -134.6953125 30.140625 C-136.02336134 31.14763247 -137.35520504 32.14972149 -138.6953125 33.140625 C-142.70048646 31.53689352 -145.3724223 28.71948514 -148.3359375 25.6953125 C-148.86298279 25.16543732 -149.39002808 24.63556213 -149.93304443 24.08963013 C-151.60856925 22.40294675 -153.27698972 20.70942936 -154.9453125 19.015625 C-156.08287101 17.86803112 -157.22088686 16.72089039 -158.359375 15.57421875 C-161.14334715 12.76824363 -163.9209701 9.95612036 -166.6953125 7.140625 C-159.93870868 -7.57642324 -137.07095662 -17.19851579 -122.6953125 -22.859375 C-80.02845456 -37.9188052 -34.6142497 -28.40683106 0 0 Z " fill="#E6EBF4" transform="translate(336.6953125,309.859375)"/>
<path d="M0 0 C1.23490173 0.00549866 1.23490173 0.00549866 2.49475098 0.0111084 C4.50042817 0.02057257 6.50608022 0.0351404 8.51171875 0.05078125 C8.53636724 5.44425113 8.55455406 10.8376885 8.56665039 16.23120117 C8.57169106 18.06747 8.57852352 19.90373479 8.5871582 21.73999023 C8.59923547 24.37354526 8.60494956 27.00704741 8.609375 29.640625 C8.61453629 30.46666733 8.61969757 31.29270966 8.62501526 32.14378357 C8.6252108 34.11314493 8.57376027 36.08239739 8.51171875 38.05078125 C6.94868977 39.61381023 5.33052587 39.28599754 3.15625 39.41015625 C-36.13705514 42.00405722 -72.33423071 55.89673071 -100.48828125 84.05078125 C-104.88736902 83.98299964 -107.48913294 80.42701275 -110.34765625 77.484375 C-110.89689758 76.93088882 -111.44613892 76.37740265 -112.01202393 75.80714417 C-113.76128589 74.04111566 -115.49981769 72.26493433 -117.23828125 70.48828125 C-118.42378625 69.28772684 -119.60997649 68.08784865 -120.796875 66.88867188 C-123.70201418 63.9504903 -126.59757462 61.00316051 -129.48828125 58.05078125 C-118.70428337 35.18751742 -79.26400792 18.89912105 -56.87890625 10.58203125 C-50.52129706 8.30867056 -44.05597987 6.61417113 -37.48828125 5.05078125 C-36.40160156 4.77492187 -35.31492187 4.4990625 -34.1953125 4.21484375 C-22.82842746 1.4181193 -11.68669564 -0.10032263 0 0 Z " fill="#FDFDFE" transform="translate(247.48828125,206.94921875)"/>
<path d="M0 0 C0 12.54 0 25.08 0 38 C-7.425 38.99 -7.425 38.99 -15 40 C-17.96256082 40.6537221 -20.74751191 41.30363742 -23.625 42.1875 C-24.32882813 42.40035645 -25.03265625 42.61321289 -25.7578125 42.83251953 C-36.44306727 46.23699269 -45.41715857 51.87994263 -54 59 C-55.32804884 60.00700747 -56.65989254 61.00909649 -58 62 C-62.00517396 60.39626852 -64.6771098 57.57886014 -67.640625 54.5546875 C-68.16767029 54.02481232 -68.69471558 53.49493713 -69.23773193 52.94900513 C-70.91325675 51.26232175 -72.58167722 49.56880436 -74.25 47.875 C-75.38755851 46.72740612 -76.52557436 45.58026539 -77.6640625 44.43359375 C-80.44803465 41.62761863 -83.2256576 38.81549536 -86 36 C-79.254931 21.30807658 -56.37289449 11.62189297 -42 6 C-27.60513623 1.028685 -15.48718983 0 0 0 Z " fill="#FDFDFE" transform="translate(256,281)"/>
<path d="M0 0 C0.64324219 0.43183594 1.28648437 0.86367188 1.94921875 1.30859375 C2.64402344 1.77136719 3.33882813 2.23414063 4.0546875 2.7109375 C11.05088946 8.07950523 15.27549582 15.32304404 16.45703125 24.06640625 C16.78991926 35.05171066 14.53353568 43.476099 6.94921875 51.55078125 C-1.54096077 59.0128531 -10.09050222 59.99280434 -21.05078125 59.30859375 C-28.94420856 57.98288716 -35.6981622 53.53403576 -40.65625 47.28515625 C-46.20129496 38.79684695 -47.17349072 30.31273708 -46.05078125 20.30859375 C-43.50620872 12.16970366 -39.1389933 6.02968489 -32.05078125 1.30859375 C-31.08591797 0.66083984 -31.08591797 0.66083984 -30.1015625 0 C-21.64007421 -4.65784784 -8.46148829 -4.65784784 0 0 Z " fill="#E7ECF4" transform="translate(271.05078125,354.69140625)"/>
<path d="M0 0 C0 20.46 0 40.92 0 62 C-10.94533105 61.0049699 -16.40853122 59.7167359 -23.91796875 52.0390625 C-25.47393554 50.09506448 -26.76449158 48.16003853 -28 46 C-28.33773437 45.41992188 -28.67546875 44.83984375 -29.0234375 44.2421875 C-32.53523156 36.79976155 -32.35618633 27.31197706 -29.93359375 19.609375 C-25.65825903 10.33644193 -19.64922109 4.848392 -10.46875 0.62890625 C-8 0 -8 0 0 0 Z " fill="#FCFDFE" transform="translate(256,352)"/>
</svg>
